<?xml version="1.0" encoding="utf-8"?>
<!-- Generator: Adobe Illustrator 25.4.1, SVG Export Plug-In . SVG Version: 6.00 Build 0)  -->
<svg version="1.1" id="Layer_1" xmlns="http://www.w3.org/2000/svg" xmlns:xlink="http://www.w3.org/1999/xlink" x="0px" y="0px"
	 viewBox="0 0 439.3 393.7" style="enable-background:new 0 0 439.3 393.7;" xml:space="preserve">
<style type="text/css">
	.st0{fill:#FFC271;}
	.st1{fill:#31302C;}
	.st2{fill:#FF7D43;}
	.st3{fill:#86B3BF;}
	.st4{fill:#2C7C89;}
</style>
<g>
	<g>
		<g>
			<circle class="st0" cx="207" cy="171" r="141.1"/>
		</g>
		<path class="st1" d="M235.6,108.6c1.6,2.1,2.9,4.1,3.7,6.3c0.2,0.7-0.7,1-1,0.4c-3.4-4.7-8.7-8.2-16.5-15.9
			c-3.3-3.3-7-5.9-11.3-7.8c-38.6-18-57-27.1-69.8-40.4C121.4,31.1,116.2,10.9,111,1.3c-1-1.8-3.7-1.7-4.4,0.3
			c-4.9,12.9-2.7,33.1,26.3,56.1c0.8,0.7,0,1.8-0.9,1.3c-16.9-9.1-25.4-16-37.8-26.8c-9.9-8.6-20.7-17.2-26.6-22
			c-1.6-1.3-3.9,0.3-3.3,2.3c5.4,16.5,27.3,34.7,49.9,46c0.9,0.4,0.3,1.7-0.5,1.5c-21.2-6.1-50.1-14.2-63.3-17.9
			c-2.1-0.5-3.5,2.1-1.8,3.5c14.7,12.2,41.7,18.3,63.1,21c1,0.1,1,1.5,0,1.6c-7.6,0.5-16.7,0.3-21.6,0c-1.4-0.1-2.4,1.4-1.7,2.7
			c3.8,6.9,16.3,24.2,49.6,33.6c13.7,3.9,24.8,4.2,35.1,7.4c1,0.3,0.7,1.8-0.3,1.7c-12.7-1.3-26.8-0.9-43-5
			c-2.2-0.5-4.2,1.2-3.9,3.4c4.4,36.2,50.1,48.6,73.5,54.2c2.1,0.5,4.1-0.5,5-2.5l7.5-17.3c34.7,18.8,55.4,7.8,55.4,7.8l1.3,0.2
			c1.7,0.3,3.6,0.2,5.2-0.4c1.4-0.5,3.4-1.2,5.2-2c2.3,0.2,4,1.7,5.2,3.4c0.4,0.5,1.2,0.5,1.6-0.1c1.8-3.1,1.2-6,0.4-8.6
			c0,0,0.8-3.4,0.7-5.4c-0.2-2.1-1.1-2.9-2.9-7c-1.6-3.8-5.6-3.8-6.9-0.8c-0.2,0.5-0.9,0.8-1.4,0.7c-0.4-0.1-0.9-0.2-1.4-0.3
			c-2.6-0.7-5.4,0.2-7.3,2.3c-2.7,3.1-4.1,8.3-3,12.4c0.3,1.2-1,2.3-2.1,1.6c-3.9-2.1-6-4.7-7-7.6c-1.4-3.7,3.7-15.2,11.4-16.2
			c3.5-0.4,6.2,1.2,7.7,2.5c0.7,0.5,1.6,0.7,2.3,0.1c0.1-0.1,0.3-0.2,0.4-0.3c1.6-1,3.5-1.2,5.3-0.8c2.3,0.7,4.1,2.4,5.2,4.9
			c0.7,1.5,1.2,2.5,1.5,3.4c0.8,1.6,1.4,2.8,1.6,4.8c0.1,1.4-0.1,3.1-0.2,4.4c-0.1,0.8-0.1,1.6,0.1,2.4l0,0c0.2,0.9,1,1.5,2,1.5
			c12.9-0.3,36.2,0.4,46.4,5.1c0,0,12.5,12.2,23.4,18.1c2,1.1,4.3-0.4,4.1-2.7c-0.5-6.5-3.5-14.5-8.9-21.4c-0.7-0.8,0.2-1.8,1.1-1.3
			c11.8,6.4,31.3,13,44.8,12.2c1,0,1.5-1.1,1.1-2c-2.2-3.9-6-8.3-11.4-12c-0.9-0.5-0.5-2,0.5-2.1c10.9-1,24.9-5.1,34.8-15.4
			c6.2-6.4,9.8-13.8,11.2-21.1c0.4-2.6-3.1-3.7-4.2-1.3c-5.1,10.5-16.3,22.8-37.5,26.7c-31.9,5.7-63.3-10.8-113.2-16
			c-2.1-0.2-4.1-0.2-6.2-0.1l-1,0.1c-1.1,0.1-1.5,1.3-0.8,2.1c1.1,1.1,2.2,2.2,3.3,3.1c0.4,0.4-0.1,1.1-0.7,0.8
			c-8.5-5.4-18.3-12.9-27.6-15.4c-4.3-1.1-9.3-1.3-14.3-1.2C235.5,105.7,234.6,107.4,235.6,108.6z"/>
		<g>
			<path class="st2" d="M163.1,221.9c-25.4-37.5-48.1-89.6-78.5-99.2c-8.7-2.7-17.7-1.2-26.6,2.5C77.9,161.2,105,207.5,163.1,221.9z
				"/>
			<path class="st2" d="M370,257c-15-19-27.6-41.7-47.2-45.7c-24.1-5.1-45.5,17.8-68.3,34.4c25.9,9.6,52.6,17.7,98.2,13.1L370,257z"
				/>
			<path class="st3" d="M370,257.1c6.9,8.6,14.3,16.4,23.1,21.4c0.6-1.2,1.1-2.3,1.7-3.5c4.5-9.5-3.2-20.2-13.7-19.1
				C375,256.6,370,257.1,370,257.1z"/>
			<path class="st3" d="M203.5,259.8c18.7,5.8,35.3-2.6,51-14.1c-21.4-8-42.3-16.9-73.1-20.5c-6.5-0.7-12.7-1.9-18.4-3.3
				C175.5,240.2,188.6,255.1,203.5,259.8z"/>
			<path class="st3" d="M57.9,125.2C51.5,113.6,45.7,99,39.8,86.1C33.1,71.4,11.2,75,9.5,91l-7.3,67
				C17.8,153.1,37.6,133.6,57.9,125.2z"/>
			<path class="st4" d="M393.2,278.5c-8.8-4.9-16.2-12.8-23.1-21.5l-17.3,1.8c-45.7,4.7-72.3-3.5-98.2-13.1
				c-15.8,11.5-32.3,19.9-51,14.1c-15-4.7-28-19.5-40.5-37.9c-58.1-14.4-85.2-60.6-105.2-96.7c-20.2,8.5-40.1,28-55.8,32.9l-0.7,6.1
				c-1.3,12.2-1.8,24.4-1.1,36.6c18.4,10.1,36.9,23,57.3,37.5c84.9,60.5,204.3,97.2,287.7,88.7c4.2-0.4,9.6-1,15.8-1.6
				C373.8,311.3,384.7,295.6,393.2,278.5z"/>
			<path class="st1" d="M361,325.5c-6.2,0.6-11.6,1.2-15.8,1.6c-83.4,8.4-202.7-28.3-287.6-88.7C37.1,223.8,18.7,211,0.3,200.9
				c0.8,15.8,3.4,31.5,8.1,46.7c5.8,18.6,14.1,36,24.5,52C64.1,324.1,99,343,138,341.4c92.9-3.8,110.8,22.4,176.9,22.3
				C332.1,353.1,347.6,340.3,361,325.5z"/>
			<path class="st2" d="M32.8,299.3c37.1,56.8,101.3,94.4,174.2,94.4c39.6,0,76.6-11.1,108.1-30.3c-66.3,0.2-84-26.1-177.1-22.3
				C99,342.8,64,323.8,32.8,299.3z"/>
		</g>
	</g>
</g>
</svg>
