<?xml version="1.0" encoding="utf-8"?><svg version="1.1" id="Layer_1" xmlns="http://www.w3.org/2000/svg" xmlns:xlink="http://www.w3.org/1999/xlink" x="0px" y="0px" viewBox="0 0 1000 600" style="enable-background:new 0 0 1000 600;" xml:space="preserve">
<style type="text/css">
	.st0{fill:#FF7D43;}
	.st1{fill:#86B3BF;}
	.st2{fill:#FFC271;}
	.st3{fill:#31302C;}
	.st4{fill:#2C7C89;}
</style>
<g>
	<g>
		<path class="st0" d="M608.8,230.8v25.7c0,0.9-1,1.3-1.7,0.8c-41.9-35.5-101.6-9.4-101.9,45.5c0,17.1,5.8,31.5,17.3,43.2    c15.5,17,43.9,22.4,64.4,13.4c7.2-3.1,13.7-7.6,20.3-13c0.7-0.5,1.6-0.1,1.6,0.8v26.3c0,0.7-0.4,1.4-1,1.7    c-55.7,32-128.1-7-127.3-72.2c-0.6-64.4,70.9-107,127.3-73.9C608.4,229.5,608.8,230.1,608.8,230.8z" />
		<path class="st0" d="M654.2,205.7c0.6,0,1,0.4,1,1v82.9c15.4-15,41.9-15.3,55.7-0.1c5.9,6.5,8.8,17,8.8,31.3v61.9c0,0.6-0.4,1-1,1    H697c-0.6,0-1-0.4-1-1v-59.8c0-8.2-1.5-14.2-4.4-17.9c-2.9-3.7-7.6-5.5-14.1-5.5c-20.6,0.5-21.8,13.9-22.4,34.4v48.6    c0,0.6-0.4,1-1,1h-21.7c-0.6,0-1-0.4-1-1V206.7c0-0.6,0.4-1,1-1H654.2z" />
		<path class="st0" d="M743.1,238.3c-0.1-13.4,17-20.5,26.3-10.8c6.1,5.6,6,16.1,0,21.8C760,259.3,742.8,252,743.1,238.3z     M770.4,282v100.6c0,0.6-0.4,1-1,1h-21.7c-0.6,0-1-0.4-1-1V282c0-0.6,0.4-1,1-1h21.7C769.9,281,770.4,281.5,770.4,282z" />
		<path class="st0" d="M821.4,206.7v175.9c0,0.6-0.4,1-1,1h-21.7c-0.6,0-1-0.4-1-1V206.7c0-0.6,0.4-1,1-1h21.7    C821,205.7,821.4,206.1,821.4,206.7z" />
		<path class="st0" d="M941.4,337.9h-72.6c1,15.8,10.9,27.6,26.9,27.5c5.9,0,10.8-1.4,14.6-4.2c3.7-2.7,7.8-7.6,12.4-14.8    c0.3-0.4,0.9-0.6,1.3-0.3l18.3,10.2c0.5,0.3,0.7,0.9,0.4,1.4c-10.7,18.3-26.3,29.4-47.9,28.9c-31.4,0.3-51.2-22.9-50.8-54.2    c0-16.2,4.5-29.4,13.5-39.4c16.4-19.7,55.5-19.8,71.8-0.4c9.6,9.9,13.9,27.3,13,44.3C942.4,337.5,942,337.9,941.4,337.9z     M918.1,318.5c-5.5-26-41.8-24.8-47.6,0H918.1z" />
	</g>
	<g>
		<path class="st1" d="M649.5,451.2h20.3c0.5,0,1,0.4,1,1v6.2c0,0.5-0.4,1-1,1h-35.4c-0.8,0-1.3-0.9-0.7-1.6    c6.7-8.3,22.3-26.1,26.5-33.1c4.9-6.9,0.7-15.7-7.7-15.7c-5.5,0-8.8,3.1-9.8,9.4c-0.1,0.5-0.5,0.8-0.9,0.8h-6.7    c-0.6,0-1-0.5-1-1.1c1.6-11.3,7.7-17,18.1-17c5.2,0,9.6,1.7,13.1,5c6,5.4,6.9,14.4,2.9,21.4C664.2,434.7,655.1,444.4,649.5,451.2z    " />
		<path class="st1" d="M678,430.4c-0.1-14.1,6.2-28.6,20.2-29.2c5.4,0,10,2.5,13.8,7.4c11.2,13.9,8.5,50.9-13.8,51.7    C684,459.7,678,445,678,430.4z M686.5,430.4c0,8.8,2.7,21.6,11.7,22c15.7-0.5,15.7-42.9,0-43.4    C689.4,409.4,686.5,421.8,686.5,430.4z" />
		<path class="st1" d="M739.2,451.2h20.3c0.5,0,1,0.4,1,1v6.2c0,0.5-0.4,1-1,1h-35.4c-0.8,0-1.3-0.9-0.7-1.6    c6.7-8.3,22.3-26.1,26.5-33.1c4.9-6.9,0.7-15.7-7.7-15.7c-5.5,0-8.8,3.1-9.8,9.4c-0.1,0.5-0.5,0.8-0.9,0.8h-6.7    c-0.6,0-1-0.5-1-1.1c1.6-11.3,7.7-17,18.1-17c5.2,0,9.6,1.7,13.1,5c6,5.4,6.9,14.4,2.9,21.4C753.9,434.7,744.8,444.4,739.2,451.2z    " />
		<path class="st1" d="M803.3,443.4h5.1c0.5,0,1,0.4,1,1v5.9c0,0.5-0.4,1-1,1h-5.1v7.1c0,0.5-0.4,1-1,1h-6.7c-0.5,0-1-0.4-1-1v-7.1    h-26.2c-0.8,0-1.2-0.9-0.8-1.5l33.9-49.3c0.5-0.8,1.7-0.4,1.7,0.5L803.3,443.4L803.3,443.4z M794.7,443.4v-19.1l-13.2,19.1H794.7z    " />
	</g>
	<g>
		<g>
			<circle class="st2" cx="272.4" cy="263.4" r="141.1" />
		</g>
		<path class="st3" d="M301,201c1.6,2.1,2.9,4.1,3.7,6.3c0.2,0.7-0.7,1-1,0.4c-3.4-4.7-8.7-8.2-16.5-15.9c-3.3-3.3-7-5.9-11.3-7.8    c-38.6-18-57-27.1-69.8-40.4c-19.3-20.1-24.5-40.3-29.7-49.9c-1-1.8-3.7-1.7-4.4,0.3c-4.9,12.9-2.7,33.1,26.3,56.1    c0.8,0.7,0,1.8-0.9,1.3c-16.9-9.1-25.4-16-37.8-26.8c-9.9-8.6-20.7-17.2-26.6-22c-1.6-1.3-3.9,0.3-3.3,2.3    c5.4,16.5,27.3,34.7,49.9,46c0.9,0.4,0.3,1.7-0.5,1.5c-21.2-6.1-50.1-14.2-63.3-17.9c-2.1-0.5-3.5,2.1-1.8,3.5    c14.7,12.2,41.7,18.3,63.1,21c1,0.1,1,1.5,0,1.6c-7.6,0.5-16.7,0.3-21.6,0c-1.4-0.1-2.4,1.4-1.7,2.7c3.8,6.9,16.3,24.2,49.6,33.6    c13.7,3.9,24.8,4.2,35.1,7.4c1,0.3,0.7,1.8-0.3,1.7c-12.7-1.3-26.8-0.9-43-5c-2.2-0.5-4.2,1.2-3.9,3.4    c4.4,36.2,50.1,48.6,73.5,54.2c2.1,0.5,4.1-0.5,5-2.5l7.5-17.3c34.7,18.8,55.4,7.8,55.4,7.8l1.3,0.2c1.7,0.3,3.6,0.2,5.2-0.4    c1.4-0.5,3.4-1.2,5.2-2c2.3,0.2,4,1.7,5.2,3.4c0.4,0.5,1.2,0.5,1.6-0.1c1.8-3.1,1.2-6,0.4-8.6c0,0,0.8-3.4,0.7-5.4    c-0.2-2.1-1.1-2.9-2.9-7c-1.6-3.8-5.6-3.8-6.9-0.8c-0.2,0.5-0.9,0.8-1.4,0.7c-0.4-0.1-0.9-0.2-1.4-0.3c-2.6-0.7-5.4,0.2-7.3,2.3    c-2.7,3.1-4.1,8.3-3,12.4c0.3,1.2-1,2.3-2.1,1.6c-3.9-2.1-6-4.7-7-7.6c-1.4-3.7,3.7-15.2,11.4-16.2c3.5-0.4,6.2,1.2,7.7,2.5    c0.7,0.5,1.6,0.7,2.3,0.1c0.1-0.1,0.3-0.2,0.4-0.3c1.6-1,3.5-1.2,5.3-0.8c2.3,0.7,4.1,2.4,5.2,4.9c0.7,1.5,1.2,2.5,1.5,3.4    c0.8,1.6,1.4,2.8,1.6,4.8c0.1,1.4-0.1,3.1-0.2,4.4c-0.1,0.8-0.1,1.6,0.1,2.4l0,0c0.2,0.9,1,1.5,2,1.5c12.9-0.3,36.2,0.4,46.4,5.1    c0,0,12.5,12.2,23.4,18.1c2,1.1,4.3-0.4,4.1-2.7c-0.5-6.5-3.5-14.5-8.9-21.4c-0.7-0.8,0.2-1.8,1.1-1.3c11.8,6.4,31.3,13,44.8,12.2    c1,0,1.5-1.1,1.1-2c-2.2-3.9-6-8.3-11.4-12c-0.9-0.5-0.5-2,0.5-2.1c10.9-1,24.9-5.1,34.8-15.4c6.2-6.4,9.8-13.8,11.2-21.1    c0.4-2.6-3.1-3.7-4.2-1.3c-5.1,10.5-16.3,22.8-37.5,26.7c-31.9,5.7-63.3-10.8-113.2-16c-2.1-0.2-4.1-0.2-6.2-0.1l-1,0.1    c-1.1,0.1-1.5,1.3-0.8,2.1c1.1,1.1,2.2,2.2,3.3,3.1c0.4,0.4-0.1,1.1-0.7,0.8c-8.5-5.4-18.3-12.9-27.6-15.4    c-4.3-1.1-9.3-1.3-14.3-1.2C300.9,198.1,300,199.8,301,201z" />
		<g>
			<path class="st0" d="M228.5,314.3c-25.4-37.5-48.1-89.6-78.5-99.2c-8.7-2.7-17.7-1.2-26.6,2.5     C143.3,253.6,170.4,299.9,228.5,314.3z" />
			<path class="st0" d="M435.4,349.4c-15-19-27.6-41.7-47.2-45.7c-24.1-5.1-45.5,17.8-68.3,34.4c25.9,9.6,52.6,17.7,98.2,13.1     L435.4,349.4z" />
			<path class="st1" d="M435.4,349.5c6.9,8.6,14.3,16.4,23.1,21.4c0.6-1.2,1.1-2.3,1.7-3.5c4.5-9.5-3.2-20.2-13.7-19.1     C440.4,349,435.4,349.5,435.4,349.5z" />
			<path class="st1" d="M268.9,352.2c18.7,5.8,35.3-2.6,51-14.1c-21.4-8-42.3-16.9-73.1-20.5c-6.5-0.7-12.7-1.9-18.4-3.3     C240.9,332.6,254,347.5,268.9,352.2z" />
			<path class="st1" d="M123.3,217.6c-6.4-11.6-12.2-26.2-18.1-39.1c-6.7-14.7-28.6-11.1-30.3,4.9l-7.3,67     C83.2,245.5,103,226,123.3,217.6z" />
			<path class="st4" d="M458.6,370.9c-8.8-4.9-16.2-12.8-23.1-21.5l-17.3,1.8c-45.7,4.7-72.3-3.5-98.2-13.1     c-15.8,11.5-32.3,19.9-51,14.1c-15-4.7-28-19.5-40.5-37.9c-58.1-14.4-85.2-60.6-105.2-96.7c-20.2,8.5-40.1,28-55.8,32.9l-0.7,6.1     c-1.3,12.2-1.8,24.4-1.1,36.6c18.4,10.1,36.9,23,57.3,37.5c84.9,60.5,204.3,97.2,287.7,88.7c4.2-0.4,9.6-1,15.8-1.6     C439.2,403.7,450.1,388,458.6,370.9z" />
			<path class="st3" d="M426.4,417.9c-6.2,0.6-11.6,1.2-15.8,1.6c-83.4,8.4-202.7-28.3-287.6-88.7c-20.5-14.6-38.9-27.4-57.3-37.5     c0.8,15.8,3.4,31.5,8.1,46.7c5.8,18.6,14.1,36,24.5,52c31.2,24.5,66.1,43.4,105.1,41.8c92.9-3.8,110.8,22.4,176.9,22.3     C397.5,445.5,413,432.7,426.4,417.9z" />
			<path class="st0" d="M98.2,391.7c37.1,56.8,101.3,94.4,174.2,94.4c39.6,0,76.6-11.1,108.1-30.3c-66.3,0.2-84-26.1-177.1-22.3     C164.4,435.2,129.4,416.2,98.2,391.7z" />
		</g>
	</g>
</g>
</svg>